<?xml version="1.0" encoding="UTF-8"?>
<svg id="Camada_1" xmlns="http://www.w3.org/2000/svg" version="1.1" viewBox="0 0 75 75">
  <!-- Generator: Adobe Illustrator 29.0.1, SVG Export Plug-In . SVG Version: 2.1.0 Build 192)  -->
  <defs>
    <style>
      .st0 {
        fill: #156863;
        fill-rule: evenodd;
      }
    </style>
  </defs>
  <path class="st0" d="M2.7,20.1h31.9l2.9-8.7h20.3v2.9h-14.5l-8.7,29H8.5L2.7,20.1ZM14.3,25.9h-2.9l3,11.6h3.1s-3.2-11.6-3.2-11.6ZM26.4,25.9h-2.9l3,11.6h3.1l-3.2-11.6ZM20.3,25.9h-2.9l3,11.6h3.1l-3.2-11.6ZM21.7,6.2c.6-.4,1.3-.6,2-.6,1.1,0,2.2.5,2.9,1.6,2.5,3.9,6.4,10,6.4,10H5.6s10.8-7.3,16.2-11ZM34.6,57.8h0c0,6.4-5.2,11.6-11.6,11.6s-11.6-5.2-11.6-11.6.6-4.1,1.6-5.8h-4.5v-5.8h28.8l8.9-29h12.4c1.3,0,2.4.8,2.8,2l5.1,15.4,3.9,1.9c1.2.6,1.9,1.8,1.9,3.1v12.4c0,1.6-1.3,2.9-2.9,2.9h-3.3c.2.9.4,1.9.4,2.9,0,6.4-5.2,11.6-11.6,11.6s-11.6-5.2-11.6-11.6c0,0-8.7,0-8.7,0ZM23,53.5c2.4,0,4.4,1.9,4.4,4.4s-1.9,4.4-4.4,4.4-4.4-1.9-4.4-4.4,1.9-4.4,4.4-4.4ZM54.9,53.5c2.4,0,4.4,1.9,4.4,4.4s-1.9,4.4-4.4,4.4-4.4-1.9-4.4-4.4,1.9-4.4,4.4-4.4ZM57.8,23h-8.7v8.7h11.3l-2.6-8.7Z"/>
</svg>