<svg id="Grupo_33" data-name="Grupo 33" xmlns="http://www.w3.org/2000/svg" xmlns:xlink="http://www.w3.org/1999/xlink" width="229.694" height="255.951" viewBox="0 0 229.694 255.951">
  <defs>
    <clipPath id="clip-path">
      <rect id="Retângulo_27" data-name="Retângulo 27" width="229.694" height="255.951" fill="none"/>
    </clipPath>
  </defs>
  <g id="Grupo_32" data-name="Grupo 32" clip-path="url(#clip-path)">
    <path id="Caminho_22" data-name="Caminho 22" d="M406.485,132.334c5.932-6.476,23.952-24.52,24.528-26.049l-8.3-8.742.117-.082-.6-.425-10.8-11.377c-2.251-2.39-4.8-4.589-6.62-7.028-1.3.676-11.634,11.863-13.331,13.664l-13.331,13.99c.405,1.074,5.246,5.893,6.435,7.157,2.224,2.363,4.385,4.494,6.711,6.963l10.023,10.475c.3.319.648.717,1.02,1.13v26.6l.766,1.321,3.383,5.835Zm.522-45.2.066.071.083.087.15.158.091.1.058.062.15.158.115.121.034.036.15.158.14.147.01.011.149.157.15.158.014.015.135.143.149.158.039.04.111.117.149.158.063.066.087.092.15.157.087.092.063.066.149.157.112.117.037.04.15.158.135.142.014.015.149.157.15.157.01.011.139.146.149.158.035.036.115.121.149.158.059.061.24.253.084.088.066.07.149.157.108.113.042.045.149.157.133.139.017.019.15.158.15.157.006.007.143.15.149.158.031.032.119.126.149.157.056.057.094.1.3.315.149.157.1.109.046.049.149.157.128.134.021.023.15.156.149.158,0,0,.147.154.148.158.028.028.123.129.149.157.051.054.1.1.149.157.075.079.074.078.149.157.1.105.05.052.149.158.125.13.025.027.15.157.148.156h0l.149.157.149.157.024.025.126.133-9.567,6.738Zm0,21.473L419.227,100l.1.1.031.033.067.07.1.1.1.1.06.063.038.04.1.1.1.1.089.094.009.008.1.1.1.1.1.1.021.022.077.081.1.1.1.1.05.052.048.05.1.1.1.1.079.083.019.02.1.1.1.1.1.1.01.01.087.093.1.1.1.1.04.042.057.062.1.1.1.1.069.073.029.03.1.1.1.1.1.1h0l.1.1.1.1.1.1.03.031.068.071.1.1.1.1.059.063.038.041.1.1.1.1.089.094.008.01.1.1.1.1.1.1.02.021.078.082.1.1.1.1.049.052.049.052.1.1.1.1.079.083.019.021.1.1.1.1.1.1.01.01.087.093.1.1.1.1.039.042.059.062.1.1.1.1.069.072.029.031.1.1.1.1.1.1-15.538,16.006-.083.089-.084.088-.083.088-.083.087-.083.088-.083.088-.082.087-.083.087-.082.087-.081.086-.082.087-.081.087-.081.087-.081.085-.081.086-.081.086-.081.085-.08.086-.081.085-.08.085-.08.085-.08.085-.08.085-.08.085-.08.085-.08.085-.08.085-.08.085-.159.169-.079.085-.079.085-.08.085-.079.085-.079.084-.079.085-.042.045Zm-4.67,17.2-.2-.195-.018-.018-.182-.183-.083-.082-.123-.124-.15-.149-.061-.062-.215-.217-.005-.005-.214-.216-.223-.226-.146-.148-.081-.082-.22-.224-.01-.011-.234-.238-.063-.064-.173-.178-.138-.141-.1-.1-.215-.22-.028-.028-.245-.251-.049-.05-.2-.2-.126-.129-.122-.127-.2-.211-.046-.048-.505-.522-.112-.115-.142-.148-.192-.2-.063-.066-.256-.265-.016-.016-.24-.249-.1-.1-.16-.167-.492-.511-.019-.019v0l-.255-.265-.077-.08-.177-.185-.155-.162-.1-.1-.233-.243-.019-.02-.25-.261-.059-.062-.19-.2-.135-.141-.111-.117-.209-.219-.035-.036-.242-.254-.04-.042-.2-.209-.113-.119-.123-.129-.184-.194-.049-.051-.23-.241-.022-.024-.2-.214-.092-.1-.131-.138-.158-.166-.061-.064-.214-.226-.007-.007-.2-.214-.07-.074-.135-.142-.131-.138-.069-.073-.188-.2-.007-.008-.19-.2-.051-.053-.133-.141-.1-.111-.074-.078-.153-.163-.019-.019-.165-.175-.033-.035-.127-.133-.079-.084-.073-.077-.121-.127-.024-.027-.138-.147-.019-.019-.112-.119-.057-.06-.066-.071-.088-.093-.027-.029-.107-.113-.007-.007-.091-.1-.035-.037-.055-.058-.057-.061-.025-.025-.071-.077c-1.158-1.229-4.109-4.7-5.332-5.335l.029-.032.03-.032.032-.034.033-.035v0l.033-.034.035-.038.037-.039.038-.04,0,0,.035-.037.041-.043.041-.044.043-.045.007-.007.037-.04.045-.049.047-.049.048-.05.01-.011.039-.041.05-.053.05-.055.053-.055.013-.015.04-.042.054-.058.056-.059.057-.06.017-.019.04-.043.242-.256.063-.068.063-.067.065-.069.027-.029.039-.042.066-.071.068-.072.209-.222.072-.077.073-.077.037-.04.036-.038.074-.078.075-.08.076-.081.043-.046.034-.035.077-.083.078-.083.08-.085.049-.053.031-.033.081-.086.082-.087.083-.088.056-.059.028-.03.084-.09.085-.09.085-.091.062-.066.025-.026.087-.092.087-.093.089-.094.069-.073.021-.021.09-.1.09-.1.092-.1,14.6,14.575Zm0-18.573-.1.073.1.074v3.771l-11.822-11.8.126-.133.065-.07.192-.2.174-.184.02-.021.389-.411.028-.029.169-.178.2-.207.076-.08.444-.467.075-.079.2-.21.173-.181.027-.028.2-.211.2-.211.022-.023.451-.473.13-.137.2-.212.119-.125.082-.086.2-.211.4-.421.2-.21.015-.015.186-.195.2-.209.064-.066.136-.142.2-.209.112-.115.087-.092.356-.371.039-.041.2-.2.2-.2.008-.009.186-.194.195-.2.055-.057.138-.144.192-.2.1-.1.09-.094.19-.2.145-.151.043-.045.187-.193.185-.192,0,0,.183-.189.183-.189.046-.047.136-.14.179-.184.088-.091.09-.093.177-.181.128-.131.046-.048.173-.177.167-.17,0,0,.169-.172.166-.17.036-.037.129-.131.163-.165.074-.075.086-.087.158-.16.11-.111.045-.047.154-.155.142-.143.008-.008.149-.149.145-.145.027-.028.116-.116.14-.14.059-.059.078-.078Z" transform="translate(-201.585 -41.917)" fill="#818484"/>
    <path id="Caminho_23" data-name="Caminho 23" d="M29.259,86.276,45.466,70.158a35.485,35.485,0,0,0,3.5-4.534c5.489-8.768,5.477-20.563-.682-29.064C45.71,33,34.717,22.5,30.871,18.651A44.344,44.344,0,0,0,26.8,14.685L7.075,34.307a24.792,24.792,0,0,0-1.644,2.164A18.062,18.062,0,0,0,3.88,38.938,26.1,26.1,0,0,0,.569,51.492c0,5.918,2.447,13.336,6.4,17.3L22.727,84.756c.429.429,1.03,1.071,1.66,1.722v36.556l4.83-8.332.042-.073Zm0-63.142c3.554,3.492,9.7,9.741,10.5,10.536,2.207,2.207,4.382,4.089,5.943,6.961a24.112,24.112,0,0,1,2.78,8.6L29.259,62.324Zm0,42.811L48.625,52.751a20.884,20.884,0,0,1-2.956,9.995c-2.47,4.12-11.51,12.588-15.537,16.616-.252.252-.551.566-.872.9ZM24.387,80.028c-3.509-3.568-9.65-9.609-10.438-10.4-2.527-2.527-4.071-3.777-6.02-6.884a21.729,21.729,0,0,1-2.918-10.2c0-5.971,1.195-9.613,3.636-13.04l15.74,10.723Zm0-32.995-14.1-9.6c1.03-1.2,2.213-2.42,3.552-3.759L20.3,27.219l4.092-4.026Z" transform="translate(-0.303 -7.828)" fill="#818484"/>
    <path id="Caminho_24" data-name="Caminho 24" d="M434.977,258.585l-3.383-5.835Z" transform="translate(-230.077 -134.738)" fill="#818484"/>
    <path id="Caminho_25" data-name="Caminho 25" d="M61.968,228.739l-.042.073Z" transform="translate(-33.012 -121.938)" fill="#818484"/>
    <path id="Caminho_26" data-name="Caminho 26" d="M331.029,78.682v56.7l30.55,52.7,33.033.559-13.244-22.846-3.383-5.835L340.1,94.607l.078-.091Z" transform="translate(-176.467 -41.944)" fill="#165750"/>
    <path id="Caminho_27" data-name="Caminho 27" d="M184.611,39.318l19.45,22.569v43.346l-19.45-22.57v62.821l19.518,19.55v-142L184.611,0Z" transform="translate(-98.414 0)" fill="#165750"/>
    <path id="Caminho_28" data-name="Caminho 28" d="M274.838,38.71V12.4h0L262.824,24.957,254.938,33.2v149.81l34.644-34.554V126.687l-14.745,14.776V38.71Z" transform="translate(-135.904 -6.609)" fill="#165750"/>
    <path id="Caminho_29" data-name="Caminho 29" d="M92.853,69.715l-10.771-12.5-.058-.078,0,.007-.108-.125L66.919,82.969l.078.091L35.613,137.2l-.042.073-23.084,39.82,33.033-.56,41.033-70.782,6.3,7.312,19.45,22.57V92.285Z" transform="translate(-6.656 -30.397)" fill="#165750"/>
    <path id="Caminho_30" data-name="Caminho 30" d="M223.693,498.475c0,6.192-2.1,12.308-7.76,12.308-5.7,0-7.76-6.078-7.76-12.308,0-6.193,2.1-12.347,7.76-12.308s7.76,6.154,7.76,12.308m-7.76-14.564c-8.257,0-13.761,5.963-13.761,14.6,0,8.907,5.39,14.411,13.761,14.526,8.409-.153,13.8-5.7,13.761-14.6-.038-8.18-5.046-14.526-13.761-14.526m-31.421,28.822V484.714h-2.561v17.048l-16.743-17.048H164.9v-.038h-2.561v27.483H164.9V492.665Zm-46.941-.573h6.04L132.755,484.37h-2.026l-11.735,27.789h2.867l3.288-7.989h9.48Zm-3.746-10.168h-7.8l4.09-9.977ZM83.483,512.159H95.295c6.192,0,9.1-3.44,9.1-7.11,0-4.587-3.4-6.766-7.76-7.148,4.931-1.491,6.231-3.937,6.231-6.8,0-3.593-2.943-6.421-7.913-6.421l-8.486.038H83.483Zm7.339-13.073c5.007,0,7.874,2.065,7.874,5.773,0,3.669-3.02,5.275-6.269,5.351H88.835V499.086Zm-1.529-12.423c2.37,0,4.166-.038,5.581.726,1.491.727,2.293,2.561,2.293,4.664,0,4.855-4.166,5.084-8.333,5.084V486.663Zm-40.06,0c2.37,0,4.167-.038,5.581.726,1.491.727,2.293,2.561,2.293,4.664,0,5.473-4.587,5.473-8.945,5.473V486.663ZM66.7,513.918,55.77,498.908c5.581-1.5,7.034-4.4,7.034-7.429,0-3.593-2.943-6.8-7.913-6.8-4.052,0-9.1.038-9.1.038H42.812v27.445h5.351V499.214l.726-.039c4.205,4.2,11.2,14.7,17.813,14.743M0,501.227c0,6.919,2.523,11.926,11.429,11.926,8.869,0,11.009-6.5,11.009-12.843v-15.6H19.609l.038,15.213c0,7.492-2.714,10.244-7.071,10.244-5.581,0-6.842-3.631-6.842-8.142V484.714H0Z" transform="translate(0 -257.967)" fill="#152220"/>
    <path id="Caminho_31" data-name="Caminho 31" d="M430.686,435.448H416.122V424.974h8.524v-2.332h-8.524V412.551h14.028v-2.179h-19.38v27.446h19.915Z" transform="translate(-218.977 -218.764)" fill="#152220"/>
    <path id="Caminho_32" data-name="Caminho 32" d="M345.9,412.387v-2.179H320.553v2.179h9.939V437.73h5.351V412.387Z" transform="translate(-170.883 -218.677)" fill="#152220"/>
    <path id="Caminho_33" data-name="Caminho 33" d="M260.2,438.347V410.328H257.64v17.048L240.9,410.328h-.305v-.038H238.03v27.484h2.561V418.279Z" transform="translate(-126.891 -218.721)" fill="#152220"/>
    <path id="Caminho_34" data-name="Caminho 34" d="M154.861,408.653c-8.256,0-13.761,5.963-13.761,14.6,0,8.906,5.39,14.411,13.761,14.526,8.41-.153,13.8-5.7,13.761-14.6-.038-8.18-5.045-14.526-13.761-14.526m0,26.872c-5.7,0-7.76-6.078-7.76-12.308,0-6.193,2.1-12.347,7.76-12.309s7.76,6.154,7.76,12.309c0,6.192-2.1,12.308-7.76,12.308" transform="translate(-75.219 -217.848)" fill="#152220"/>
    <path id="Caminho_35" data-name="Caminho 35" d="M53.121,435.486l.994-2.14L62.753,415.3v22.515h5.352V410.372H62.753l-9.518,19.495-9.4-19.495H38.519v27.445h2.37v-21.9l10.856,22.362Z" transform="translate(-20.534 -218.764)" fill="#152220"/>
  </g>
</svg>
