<?xml version="1.0" encoding="UTF-8"?>
<svg id="Camada_1" data-name="Camada 1" xmlns="http://www.w3.org/2000/svg" viewBox="0 0 63.14 48.6">
  <defs>
    <style>
      .cls-1 {
        fill: #136862;
        stroke-width: 0px;
      }
    </style>
  </defs>
  <path class="cls-1" d="M56.38,24.91c1.63-1.78,6.6-6.76,6.76-7.18l-2.29-2.41.03-.02-.16-.12-2.98-3.13c-.62-.66-1.32-1.26-1.82-1.94-.36.19-3.21,3.27-3.67,3.76l-3.67,3.85c.11.3,1.45,1.62,1.77,1.97.61.65,1.21,1.24,1.85,1.92l2.76,2.89c.08.09.18.2.28.31v7.33l-10.23-17.64.02-.02-2.52-4.36v15.62l8.42,14.52,9.1.15-3.65-6.29v-9.21ZM59.92,16.03h0s.02.03.02.03l.03.03.03.03.02.02h.01s.03.04.03.04l.03.03.02.03h0s.03.03.03.03l.03.03.03.03h0s.02.03.02.03l.03.03.03.03h.01s.01.03.01.03l.03.03.03.03.02.02h0s.03.03.03.03l.03.03.03.03h0s.02.03.02.03l.03.03.03.03h.01s.02.03.02.03l.03.03.03.03.02.02h0s.03.04.03.04l.03.03.03.03h0s.03.03.03.03l.03.03.03.03h0s.02.03.02.03l.03.03.03.03.02.02h.01s.03.04.03.04l.03.03.02.03h0s.03.03.03.03l.03.03.03.03h0s.02.03.02.03l.03.03.03.03h.01s.01.03.01.03l.03.03.03.03.02.02h0s.03.03.03.03l.03.03.03.03h0s.02.03.02.03l.03.03.03.03h.01s.02.03.02.03l.03.03.03.03.02.02h0s.03.04.03.04l.03.03.03.03-4.28,4.41-.02.02-.02.02-.02.02-.02.02-.02.02-.02.02-.02.02-.02.02-.02.02-.02.02-.02.02-.02.02-.02.02-.02.02-.02.02-.02.02-.02.02-.02.02-.02.02-.02.02-.02.02-.02.02-.02.02-.02.02-.02.02-.02.02-.02.02-.02.02-.04.05-.02.02-.02.02-.02.02-.02.02-.02.02-.02.02h-.01s0-4.71,0-4.71l3.37-2.37.03.03ZM56.52,12.46l.02.02.02.02.04.04.02.03.02.02.04.04.03.03h0s.04.05.04.05l.04.04h0s.04.05.04.05l.04.04h0s.04.04.04.04l.04.04h.01s.03.04.03.04l.04.04.02.02.02.03.04.04.02.03.02.02.04.04.03.03h.01s.04.05.04.05l.04.04h0s.04.05.04.05l.04.04h0s.04.04.04.04l.04.04h0s.03.04.03.04l.04.04.02.02.07.07.02.02.02.02.04.04.03.03h.01s.04.06.04.06l.04.04h0s.04.05.04.05l.04.04h0s.04.04.04.04l.04.04h0s.03.04.03.04l.04.04.02.02.03.03.08.09.04.04.03.03h.01s.04.06.04.06l.04.04h0s.04.05.04.05l.04.04h0s.04.04.04.04l.04.04h0s.03.04.03.04l.04.04h.01s.03.04.03.04l.04.04.02.02.02.02.04.04.03.03h.01s.04.06.04.06l.03.04h0s.04.05.04.05l.04.04h0s.04.04.04.04l.04.04h0s.03.04.03.04l-2.64,1.86v-4.63ZM52.01,15.79l.02-.02.05-.06.05-.05h0s.11-.12.11-.12h0s.05-.06.05-.06l.05-.06.02-.02.12-.13.02-.02.05-.06.05-.05h0s.06-.07.06-.07l.06-.06h0s.12-.14.12-.14l.04-.04.06-.06.03-.03.02-.02.06-.06.11-.12.06-.06h0s.05-.06.05-.06l.06-.06.02-.02.04-.04.05-.06.03-.03.02-.03.1-.1h.01s.05-.07.05-.07l.05-.06h0s.05-.06.05-.06l.05-.06.02-.02.04-.04.05-.05.03-.03.02-.03.05-.05.04-.04h.01s.05-.07.05-.07l.05-.05h0s.05-.05.05-.05l.05-.05h.01s.04-.05.04-.05l.05-.05.02-.02.02-.03.05-.05.04-.04h.01s.05-.06.05-.06l.05-.05h0s.05-.05.05-.05l.05-.05h.01s.04-.05.04-.05l.04-.05.02-.02.02-.02.04-.04.03-.03h.01s.04-.06.04-.06l.04-.04h0s.04-.04.04-.04l.04-.04h0s.03-.04.03-.04l.04-.04.02-.02.02-.02v5.55l-.03.02.03.02v1.04l-3.26-3.25.03-.04ZM55.18,23.06h0s-.05-.06-.05-.06l-.02-.02-.03-.03-.04-.04-.02-.02-.06-.06h0s-.06-.06-.06-.06l-.06-.06-.04-.04-.02-.02-.06-.06h0s-.06-.07-.06-.07l-.02-.02-.05-.05-.04-.04-.03-.03-.06-.06h0s-.07-.08-.07-.08h-.01s-.05-.07-.05-.07l-.03-.04-.03-.03-.06-.06h-.01s-.14-.16-.14-.16l-.03-.03-.04-.04-.05-.05-.02-.02-.07-.07h0s-.07-.07-.07-.07l-.03-.03-.04-.05-.14-.14h0s0,0,0,0l-.07-.07-.02-.02-.05-.05-.04-.04-.03-.03-.06-.07h0s-.07-.08-.07-.08l-.02-.02-.05-.05-.04-.04-.03-.03-.06-.06h0s-.07-.08-.07-.08h-.01s-.05-.07-.05-.07l-.03-.03-.03-.04-.05-.05h-.01s-.06-.08-.06-.08h0s-.06-.07-.06-.07l-.03-.03-.04-.04-.04-.05-.02-.02-.06-.06h0s-.06-.06-.06-.06l-.02-.02-.04-.04-.04-.04-.02-.02-.05-.05h0s-.05-.06-.05-.06h-.01s-.04-.05-.04-.05l-.03-.03-.02-.02-.04-.04h0s-.05-.05-.05-.05h0s-.03-.05-.03-.05l-.02-.02-.02-.02-.03-.04h0s-.04-.05-.04-.05h0s-.03-.04-.03-.04l-.02-.02-.02-.02-.02-.03h0s-.03-.04-.03-.04h0s-.03-.03-.03-.03h0s-.02-.03-.02-.03l-.02-.02h0s-.02-.03-.02-.03c-.32-.34-1.13-1.3-1.47-1.47h0s0-.02,0-.02h0s0-.02,0-.02h0s0-.01,0-.01h0s.01-.02.01-.02h.01s0-.01,0-.01h0s.01-.02.01-.02h.01s.01-.02.01-.02h0s.01-.01.01-.01h.01s.01-.03.01-.03h.01s0-.02,0-.02h.01s.01-.03.01-.03v-.02s.03-.02.03-.02h0s.01-.02.01-.02l.02-.02.02-.02.02-.02h0s.01-.02.01-.02l.07-.07.02-.02.02-.02.02-.02h0s.01-.02.01-.02l.02-.02.02-.02.06-.06.02-.02.02-.02h.01s0-.02,0-.02l.02-.02.02-.02.02-.02h.01s0-.02,0-.02l.02-.02.02-.02.02-.02h.01s0-.02,0-.02l.02-.02.02-.02.02-.02.02-.02h0s.02-.03.02-.03l.02-.02.02-.02.02-.02h0s.02-.03.02-.03l.02-.03.02-.03.02-.02h0s.02-.03.02-.03l.02-.03.03-.03,4.02,4.02v2.46l-.05-.05Z"/>
  <path class="cls-1" d="M23.67,0v10.83l-2.97-3.44-.02-.02h0s-.03-.03-.03-.03l-4.13,7.15.02.02-8.65,14.92v-7.81l4.47-4.44c.34-.39.69-.8.97-1.25,1.51-2.42,1.51-5.67-.19-8.01-.71-.98-3.74-3.87-4.8-4.93-.28-.28-.84-.9-1.12-1.09L1.79,7.29c-.17.19-.31.4-.45.6-.16.22-.29.41-.43.68-.55,1.09-.91,2.1-.91,3.46,0,1.63.67,3.67,1.76,4.77l4.34,4.4c.12.12.28.29.46.47v10.07l1.33-2.3-6.36,10.97,9.1-.15,11.3-19.5,1.74,2.01v17.31s5.38,5.39,5.38,5.39V6.35S23.67,0,23.67,0ZM6.56,19.89c-.97-.98-2.66-2.65-2.88-2.86-.7-.7-1.12-1.04-1.66-1.9-.39-.62-.8-1.81-.8-2.81,0-1.64.33-2.65,1-3.59l4.34,2.95v8.21ZM2.68,8.16c.28-.33.61-.67.98-1.04.61-.61,1.17-1.17,1.78-1.78l1.13-1.11v6.57s-3.88-2.65-3.88-2.65ZM12.43,15.13c-.68,1.13-3.17,3.47-4.28,4.58-.07.07-.15.16-.24.25v-3.95l5.34-3.63c-.04.95-.3,1.9-.81,2.75ZM10.8,7.12c.61.61,1.21,1.13,1.64,1.92.41.75.67,1.55.77,2.37l-5.29,3.61V4.22c.98.96,2.67,2.68,2.89,2.9Z"/>
  <polygon class="cls-1" points="38.2 37.15 38.2 9.05 38.2 8.84 38.2 1.59 38.2 1.59 34.89 5.06 32.72 7.33 32.72 48.6 42.27 39.08 42.27 33.08 38.2 37.15"/>
</svg>