<svg id="Grupo_24" data-name="Grupo 24" xmlns="http://www.w3.org/2000/svg" xmlns:xlink="http://www.w3.org/1999/xlink" width="755.239" height="1244.775" viewBox="0 0 755.239 1244.775">
  <defs>
    <clipPath id="clip-path">
      <rect id="Retângulo_15" data-name="Retângulo 15" width="755.239" height="1244.775" fill="none"/>
    </clipPath>
  </defs>
  <g id="Grupo_23" data-name="Grupo 23" clip-path="url(#clip-path)">
    <path id="Caminho_18" data-name="Caminho 18" d="M404.833,767.187C489.578,674.666,747,416.9,755.243,395.053L636.671,270.17l1.667-1.178-8.549-6.077L475.477,100.389C443.321,66.249,406.947,34.831,380.9,0,362.276,9.659,214.7,169.473,190.451,195.2L0,395.053c5.793,15.342,74.947,84.192,91.939,102.24,31.78,33.76,62.645,64.192,95.88,99.47L331,746.4c4.285,4.555,9.258,10.238,14.565,16.144v379.995l10.94,18.872,48.325,83.362Zm7.449-645.745.947,1.007,1.185,1.238,2.143,2.263,1.295,1.369.83.876,2.135,2.26,1.653,1.731.486.518,2.139,2.263,2,2.089.138.156,2.128,2.249,2.143,2.249.209.216,1.923,2.04,2.139,2.253.56.575,1.579,1.671,2.128,2.256.9.936,1.238,1.313,2.139,2.245,1.242,1.313.9.94,2.132,2.245,1.589,1.674.539.575,2.143,2.253,1.937,2.04.2.209,2.132,2.253,2.146,2.245.142.163,1.983,2.082,2.135,2.256.5.518,1.642,1.731,2.135,2.253.841.876,3.43,3.611,1.192,1.252.944,1,2.135,2.242,1.54,1.618.6.639,2.125,2.238,1.894,1.979.241.27,2.143,2.253,2.135,2.249.092.089,2.036,2.15,2.135,2.256.447.451,1.7,1.795,2.132,2.245.791.819,1.344,1.426,4.271,4.494,2.135,2.249,1.476,1.554.663.692,2.128,2.245,1.827,1.919.309.33,2.143,2.238,2.135,2.253.032.035,2.1,2.206,2.125,2.253.394.4,1.749,1.848,2.135,2.238.727.77,1.408,1.483,2.135,2.242,1.075,1.135,1.057,1.11,2.135,2.245,1.43,1.5.713.748,2.128,2.253,1.777,1.855.358.387,2.143,2.245,2.111,2.224.021.025,2.128,2.245,2.135,2.238.337.362,1.806,1.894L412.282,361.6Zm0,306.757L586.863,305.242l1.4,1.476.433.461.961,1.011,1.4,1.476,1.4,1.469.855.9.546.575,1.4,1.469,1.4,1.479,1.273,1.344.128.124,1.391,1.476,1.408,1.469,1.4,1.479.294.309,1.1,1.164,1.4,1.476,1.408,1.483.713.749.678.713,1.4,1.486,1.4,1.469,1.128,1.188.273.287,1.4,1.476,1.4,1.472,1.4,1.479.145.149,1.245,1.323,1.408,1.472,1.4,1.476.568.6.823.88,1.4,1.479,1.408,1.469.986,1.043.408.436,1.4,1.476,1.4,1.469,1.4,1.476,0,.011,1.394,1.472,1.4,1.476,1.4,1.476.429.447.965,1.022,1.4,1.479,1.4,1.476.848.894.546.582,1.4,1.479,1.408,1.476,1.266,1.337.128.138,1.4,1.472,1.408,1.476,1.394,1.476.284.3,1.114,1.174,1.4,1.486,1.4,1.476.706.745.7.734,1.4,1.476,1.4,1.479,1.128,1.181.273.294,1.4,1.476,1.4,1.476,1.4,1.479.149.145,1.242,1.33,1.408,1.483,1.394,1.476.56.6.841.883,1.4,1.479,1.394,1.476.979,1.032.422.443,1.4,1.483,1.394,1.486,1.4,1.476L454.453,628.352l-1.192,1.266-1.188,1.259-1.181,1.263-1.185,1.252-1.178,1.252-1.181,1.252-1.167,1.245L445,638.391l-1.171,1.245-1.16,1.231L441.5,642.1l-1.16,1.238-1.156,1.242-1.16,1.224-1.156,1.234-1.156,1.231-1.153,1.217-1.146,1.224-1.156,1.227-1.149,1.217-1.146,1.224L428.82,655.6l-1.149,1.213-1.139,1.224-1.142,1.2-1.142,1.22-1.139,1.21-1.142,1.213-2.274,2.419-1.135,1.206-1.135,1.21-1.139,1.206-1.132,1.21-1.135,1.2-1.135,1.21-.6.638ZM345.568,673.914l-2.792-2.788-.259-.252-2.607-2.6-1.181-1.167-1.756-1.777-2.143-2.135-.866-.883-3.068-3.093-.078-.071-3.051-3.086-3.182-3.228-2.089-2.114-1.153-1.174-3.154-3.193-.138-.153-3.338-3.4-.9-.915-2.48-2.543-1.972-2.008-1.454-1.493-3.068-3.139-.394-.408-3.491-3.583-.7-.713-2.834-2.912-1.795-1.852-1.745-1.809-2.934-3.012-.649-.678-7.219-7.456-1.593-1.646-2.033-2.1-2.742-2.827-.9-.947-3.654-3.789-.227-.227-3.427-3.565-1.366-1.412-2.288-2.387-7.02-7.3-.266-.27-.021-.032-3.643-3.792-1.1-1.146-2.526-2.639-2.221-2.316-1.391-1.454-3.327-3.473-.27-.284-3.579-3.735-.841-.876-2.707-2.841L234,559.2l-1.593-1.674-2.987-3.136-.5-.521-3.459-3.625-.575-.6-2.848-2.99-1.618-1.7-1.756-1.845-2.632-2.767-.7-.734-3.292-3.452-.319-.341-2.909-3.061L207.5,531.39l-1.869-1.976-2.253-2.366-.873-.915-3.054-3.228-.1-.092-2.905-3.065-1.007-1.064-1.926-2.022-1.869-1.976-.986-1.039-2.685-2.82-.106-.124-2.7-2.852-.727-.763-1.9-2.011-1.5-1.579-1.046-1.107-2.2-2.334-.263-.266-2.362-2.5-.472-.5-1.809-1.9-1.132-1.2-1.043-1.1-1.724-1.823-.348-.38-1.976-2.089-.266-.277-1.6-1.692-.805-.851-.951-1.011-1.259-1.334-.383-.415-1.525-1.618-.11-.1-1.3-1.387-.507-.532-.777-.826-.816-.866-.351-.365-1.022-1.093c-16.548-17.563-58.7-67.168-76.175-76.224l.411-.447.436-.458.461-.479.468-.493.021-.032.468-.493.511-.539.525-.56.539-.575.053-.06.507-.532.589-.614.585-.639.617-.646.1-.106.529-.564.653-.7.663-.7.681-.724.138-.156.56-.585.724-.763.72-.777.756-.795.188-.209.568-.6.777-.83.8-.841.812-.862.252-.266.564-.614,3.455-3.654.9-.968.908-.965.933-.979.387-.411.56-.6.947-1.007.976-1.029,2.987-3.178,1.032-1.093,1.036-1.1.532-.568.518-.546,1.054-1.125,1.078-1.142,1.085-1.153.617-.66.482-.5,1.114-1.185,1.121-1.185,1.139-1.206.7-.756.443-.465,1.156-1.231,1.171-1.238L122,353.862l.8-.841.394-.426,1.2-1.281,1.21-1.291,1.227-1.295.88-.936.358-.369,1.245-1.32,1.245-1.337,1.277-1.344.979-1.039.294-.3,1.288-1.366,1.288-1.373L137,337.955,345.568,546.172Zm0-265.331-1.476,1.043,1.476,1.05v53.876l-168.884-168.6,1.8-1.9.94-.99,2.742-2.9,2.49-2.614.28-.3,5.559-5.874.4-.411,2.405-2.54,2.813-2.962,1.085-1.139,6.35-6.676,1.064-1.132,2.848-3,2.472-2.59.376-.408,2.863-3.008,2.863-3.012.316-.326,6.438-6.758,1.862-1.958,2.877-3.015,1.7-1.788,1.171-1.231,2.877-3.015,5.747-6.013,2.863-3,.216-.223,2.653-2.781,2.856-2.98.9-.944,1.947-2.033,2.845-2.98,1.589-1.646,1.245-1.309,5.09-5.3.561-.585,2.806-2.927,2.8-2.912.121-.124,2.66-2.77L272.955,195l.784-.812,1.976-2.061,2.742-2.841,1.433-1.483,1.291-1.344,2.714-2.8,2.065-2.146.624-.646,2.671-2.763,2.653-2.739.032-.028,2.607-2.692,2.611-2.7.66-.67,1.937-2,2.565-2.636,1.259-1.291,1.288-1.327,2.519-2.59,1.841-1.869.653-.681,2.472-2.526,2.384-2.437.057-.06,2.412-2.458,2.377-2.43.518-.525,1.841-1.866,2.32-2.363,1.061-1.075,1.224-1.242,2.26-2.288,1.568-1.579.649-.67,2.192-2.2,2.033-2.05.117-.117,2.128-2.128,2.072-2.079.387-.394,1.657-1.66,2-1.994.848-.841,1.114-1.107Z" fill="#c4e3e0"/>
  </g>
</svg>
