<svg id="Grupo_22" data-name="Grupo 22" xmlns="http://www.w3.org/2000/svg" xmlns:xlink="http://www.w3.org/1999/xlink" width="522" height="1078.708" viewBox="0 0 522 1078.708">
  <defs>
    <clipPath id="clip-path">
      <rect id="Retângulo_14" data-name="Retângulo 14" width="522" height="1078.708" fill="none"/>
    </clipPath>
  </defs>
  <g id="Grupo_21" data-name="Grupo 21" clip-path="url(#clip-path)">
    <path id="Caminho_17" data-name="Caminho 17" d="M285.637,712.749,446.985,552.284c12.443-14.14,24.8-29.021,34.885-45.137,54.645-87.29,54.526-204.718-6.783-289.36-25.673-35.44-135.116-140.013-173.4-178.3C291.456,29.259,271.357,6.838,261.148,0L64.778,195.348c-6.121,6.92-11.229,14.283-16.364,21.545-5.727,8.1-10.423,14.649-15.449,24.566C13,280.829,0,317.453,0,366.447c0,58.917,24.361,132.772,63.668,172.2L220.6,697.612c4.269,4.269,10.258,10.658,16.526,17.151v363.945l48.085-82.948.424-.729Zm0-628.635c35.382,34.76,96.581,96.984,104.5,104.9,21.966,21.966,43.627,40.71,59.164,69.294a240.027,240.027,0,0,1,27.675,85.63L285.637,474.287Zm0,426.218,192.8-131.348A207.926,207.926,0,0,1,449,478.489c-24.587,41.012-114.6,125.324-154.69,165.421-2.508,2.508-5.489,5.639-8.678,8.992ZM237.128,650.54c-34.937-35.526-96.075-95.663-103.92-103.508-25.161-25.161-40.524-37.6-59.936-68.534-14.155-22.552-29.048-65.312-29.048-101.525,0-59.445,11.9-95.7,36.206-129.828L237.128,353.9Zm0-328.492L96.783,226.434c10.261-11.912,22.036-24.087,35.367-37.418,21.926-21.926,42.312-42.312,64.238-64.232l40.74-40.078Z" fill="#c4e3e0"/>
  </g>
</svg>
