<svg id="Grupo_20" data-name="Grupo 20" xmlns="http://www.w3.org/2000/svg" xmlns:xlink="http://www.w3.org/1999/xlink" width="184" height="141.639" viewBox="0 0 184 141.639">
  <defs>
    <clipPath id="clip-path">
      <rect id="Retângulo_13" data-name="Retângulo 13" width="184" height="141.639" fill="none"/>
    </clipPath>
  </defs>
  <g id="Grupo_19" data-name="Grupo 19" clip-path="url(#clip-path)">
    <path id="Caminho_10" data-name="Caminho 10" d="M400.331,121.751c4.763-5.2,19.231-19.688,19.694-20.915l-6.664-7.019.094-.066-.481-.342L404.3,84.275a72.417,72.417,0,0,1-5.316-5.643c-1.047.543-9.341,9.525-10.7,10.971l-10.7,11.233c.325.862,4.212,4.732,5.167,5.746,1.786,1.9,3.521,3.608,5.389,5.591l8.048,8.41c.241.256.52.575.819.907v21.357l.615,1.061,2.716,4.685Zm.419-36.294.053.057.066.07.121.127.073.077.046.049.12.127.093.1.027.029.12.127.112.118.008.009.12.126.12.127.012.012.108.115.12.127.031.032.089.094.12.127.051.053.069.073.12.126.07.074.051.053.12.126.09.094.03.032.121.127.109.114.011.012.12.126.12.126.008.009.111.117.12.127.028.029.093.1.12.127.047.049.193.2.067.07.053.056.12.126.087.091.034.036.12.126.106.111.013.015.121.127.12.126,0,.005.115.121.12.127.025.025.1.1.12.126.045.046.075.08.24.253.12.126.083.087.037.039.12.126.1.108.017.019.12.126.12.127,0,0,.118.124.119.127.022.022.1.1.12.126.041.043.079.083.12.126.06.063.06.063.12.126.08.084.04.042.12.127.1.1.02.021.12.126.119.125h0l.12.126.12.126.019.02.1.106-7.681,5.41Zm0,17.241,9.812-6.911.079.083.025.026.054.057.079.083.079.083.048.051.031.032.079.082.079.083.072.076.007.007.078.083.079.082.078.083.016.018.062.065.079.083.079.084.04.042.038.04.079.084.078.082.064.067.015.016.079.083.079.083.079.083.008.008.07.075.079.082.079.083.032.033.046.049.079.083.079.082.055.058.023.024.079.083.079.082.079.083h0l.078.083.079.083.078.083.024.025.054.057.079.083.079.083.048.05.031.033.078.083.079.083.071.075.007.008.079.082.079.083.078.083.016.017.063.066.079.084.079.083.04.042.039.042.079.083.078.083.063.066.015.016.079.083.079.083.079.083.008.008.07.075.079.084.078.083.031.033.047.05.079.083.078.083.055.058.024.025.079.083.078.084.079.083L403.12,113.948l-.067.071-.067.071-.066.071-.066.07-.066.07-.066.07-.066.07-.066.07-.066.07-.065.069-.066.07-.066.07-.065.07-.065.069-.065.069-.065.069-.065.068-.064.069-.065.069-.064.069-.065.069-.064.069-.065.068-.064.069-.064.068-.064.068-.064.068-.064.068-.128.136-.064.068-.064.068-.064.068-.064.068-.064.067-.064.068-.034.036ZM397,116.509l-.157-.156-.015-.014-.146-.147-.066-.066-.1-.1-.12-.12-.049-.05-.172-.174,0,0-.172-.173-.179-.181-.117-.119-.065-.066-.177-.179-.008-.009-.188-.191-.051-.051-.139-.143-.111-.113-.082-.084-.172-.177-.022-.023-.2-.2-.039-.04-.159-.163-.1-.1-.1-.1-.165-.169-.037-.038-.406-.419-.09-.092-.114-.118-.154-.159-.051-.053-.205-.213-.013-.013-.193-.2-.076-.079-.129-.134-.395-.411-.015-.015v0l-.2-.213-.062-.064-.142-.148-.125-.13-.078-.082-.187-.2-.015-.016-.2-.21-.047-.049-.152-.16-.109-.113-.089-.094-.168-.176-.029-.029-.194-.2-.032-.033-.16-.168-.091-.1-.1-.1-.148-.156-.039-.041-.185-.194-.018-.019-.163-.172-.074-.077-.1-.111-.127-.133-.049-.051-.172-.181-.005-.005-.163-.172-.057-.06-.108-.114-.1-.111-.055-.058-.151-.159-.006-.007-.152-.16-.041-.043-.107-.113-.084-.089-.059-.062-.123-.131-.015-.015-.133-.141-.027-.028-.1-.107-.064-.067-.058-.062-.1-.1-.02-.021-.111-.118-.015-.015-.09-.1-.045-.048-.053-.057-.071-.075-.022-.023-.086-.091-.006-.006-.073-.078-.028-.03-.044-.046-.046-.049-.02-.02-.057-.061c-.93-.987-3.3-3.775-4.281-4.284l.023-.025.024-.025.026-.027.026-.028v0l.027-.027.028-.031.03-.031.03-.032,0,0,.029-.03.033-.035.033-.036.034-.036.006-.006.03-.032.036-.039.038-.039.038-.041.008-.009.031-.033.04-.043.04-.044.042-.044.01-.012.032-.033.044-.047.045-.047.046-.048.014-.015.032-.034.194-.205.051-.054.051-.054.052-.055.022-.023.031-.033.053-.057.055-.058.168-.178.058-.061.059-.062.03-.032.029-.031.06-.063.06-.064.061-.065.034-.037.027-.028.063-.066.063-.067.064-.068.04-.042.025-.026.065-.069.066-.07.066-.07.045-.047.022-.024.067-.072.068-.072.069-.073.049-.053.02-.021.07-.074.07-.075.072-.076.055-.058.017-.017.072-.077.072-.077.073-.078L397,109.329Zm0-14.913-.083.058.083.059v3.028l-9.492-9.476.1-.107.052-.056.154-.163.14-.147.016-.017.312-.33.022-.023.135-.143.158-.166.061-.064.357-.375.06-.063.16-.169.139-.145.021-.023.161-.169.161-.169.018-.018.362-.38.1-.11.162-.17.1-.1.066-.069.162-.169.323-.338.161-.169.012-.012.149-.156.16-.168.051-.053.109-.114.16-.168.09-.093.07-.073.286-.3.031-.033.158-.165.157-.164.007-.007.149-.156.156-.162.044-.046.111-.116.154-.159.081-.084.072-.076.153-.157.116-.121.035-.036.15-.155.149-.154h0l.147-.151.147-.151.037-.038.109-.112.144-.148.071-.073.072-.075.142-.145.1-.1.037-.038.139-.142.134-.137,0,0,.136-.138.133-.136.029-.03.1-.1.131-.133.059-.06.069-.07.127-.129.088-.089.036-.037.123-.124L396.42,86l.007-.006.12-.12.117-.117.021-.022.093-.093.112-.112.048-.047.063-.062Z" transform="translate(-236.026 -49.153)" fill="#818484"/>
    <path id="Caminho_11" data-name="Caminho 11" d="M23.036,72.167,36.049,59.226a28.491,28.491,0,0,0,2.814-3.64,21.171,21.171,0,0,0-.547-23.337c-2.071-2.858-10.9-11.292-13.985-14.38a35.606,35.606,0,0,0-3.269-3.184L5.224,30.44A19.906,19.906,0,0,0,3.9,32.177a14.484,14.484,0,0,0-1.246,1.981A20.955,20.955,0,0,0,0,44.238C0,48.99,1.965,54.947,5.135,58.126l12.656,12.82c.344.344.827.86,1.333,1.383v29.352L23,94.992l.034-.058Zm0-50.7c2.854,2.8,7.789,7.822,8.428,8.46,1.772,1.772,3.519,3.283,4.772,5.589a19.36,19.36,0,0,1,2.232,6.906L23.036,52.936Zm0,34.374L38.585,45.25a16.768,16.768,0,0,1-2.374,8.025c-1.983,3.308-9.242,10.107-12.475,13.341-.2.2-.443.455-.7.725ZM19.124,67.15c-2.817-2.865-7.748-7.715-8.381-8.347a27.547,27.547,0,0,1-4.834-5.527,17.447,17.447,0,0,1-2.343-8.188c0-4.794.959-7.718,2.92-10.47l12.638,8.609Zm0-26.492L7.806,32.947c.827-.96,1.777-1.943,2.852-3.018l5.181-5.18,3.286-3.232Z" transform="translate(0 -9.18)" fill="#818484"/>
    <path id="Caminho_12" data-name="Caminho 12" d="M433.741,257.436l-2.716-4.685Z" transform="translate(-269.435 -157.996)" fill="#818484"/>
    <path id="Caminho_13" data-name="Caminho 13" d="M61.39,228.74l-.034.059Z" transform="translate(-38.354 -142.986)" fill="#818484"/>
    <path id="Caminho_14" data-name="Caminho 14" d="M330.459,78.683v45.525l24.529,42.312,26.523.449-10.634-18.344h0l-2.716-4.685L337.743,91.469l.062-.073Z" transform="translate(-206.571 -49.185)" fill="#165750"/>
    <path id="Caminho_15" data-name="Caminho 15" d="M270.346,33.525V12.4h0L260.7,22.483l-6.332,6.62V149.389l27.817-27.744V104.164l-11.839,11.864v-82.5Z" transform="translate(-159.007 -7.75)" fill="#165750"/>
    <path id="Caminho_16" data-name="Caminho 16" d="M92.117,18.5,76.446,0V31.57L67.8,21.535l-.046-.063,0,.005-.087-.1L55.623,42.212l.063.073-25.2,43.47-.034.059L11.917,117.785l26.523-.449L71.386,60.5l5.06,5.871v50.441l15.671,15.7V18.5Z" transform="translate(-7.45 0)" fill="#165750"/>
  </g>
</svg>
