<svg id="Grupo_2" data-name="Grupo 2" xmlns="http://www.w3.org/2000/svg" xmlns:xlink="http://www.w3.org/1999/xlink" width="330.856" height="21.375" viewBox="0 0 330.856 21.375">
  <defs>
    <clipPath id="clip-path">
      <path id="Caminho_1" data-name="Caminho 1" d="M17.263.572l-6.78,13.887L3.785.572H0v19.55H1.688V4.52L9.421,20.449l.981-1.988.708-1.525L17.263,4.085V20.122h3.812V.572Zm106.546,0v19.55H138V18.434H127.621V10.973h6.072V9.312h-6.072V2.124h9.992V.572Zm57.4,0,.027,10.837c0,5.337-1.933,7.3-5.037,7.3-3.975,0-4.874-2.587-4.874-5.8V.572h-4.084V12.335c0,4.928,1.8,8.5,8.141,8.5,6.317,0,7.842-4.629,7.842-9.149V.572ZM66.356.545V20.122h1.825V6.236l13.968,14.3V.572H80.325V12.716L68.4.572h-.218V.545ZM201.547,1.961h.762c1.688,0,2.968-.027,3.976.517A3.537,3.537,0,0,1,207.918,5.8c0,3.9-3.267,3.9-6.371,3.9ZM199.859.572h-2.124v19.55h3.812V10.9l.517-.027c3,2.99,7.978,10.474,12.689,10.5l-7.788-10.692c3.975-1.066,5.01-3.136,5.01-5.291,0-2.559-2.1-4.847-5.637-4.847-2.886,0-6.48.027-6.48.027m30.66,10.237h1.416c3.567,0,5.609,1.471,5.609,4.112,0,2.614-2.151,3.758-4.466,3.812h-2.559Zm0-8.849h.327c1.688,0,2.968-.027,3.975.517A3.536,3.536,0,0,1,236.454,5.8c0,3.458-2.968,3.621-5.936,3.621ZM228.83.572h-2.124v19.55h8.414c4.411,0,6.48-2.45,6.48-5.064,0-3.267-2.423-4.82-5.528-5.092,3.513-1.062,4.438-2.8,4.438-4.847,0-2.559-2.1-4.574-5.636-4.574ZM282.879.545V20.122H284.7V6.236l13.969,14.3V.572h-1.824V12.716L284.921.572H284.7V.545ZM93.8.518V2.07h7.079V20.122h3.812V2.07h7.161V.518ZM259.925,5.773l2.641,7.107h-5.555Zm.435-5.446L252,20.122h2.043l2.341-5.691h6.753l2.1,5.691h4.3L261.8.327ZM38.392,10.374c0-4.411,1.5-8.795,5.528-8.768s5.527,4.384,5.527,8.768c0,4.411-1.5,8.768-5.527,8.768-4.057,0-5.528-4.33-5.528-8.768M43.92,0c-5.881,0-9.8,4.248-9.8,10.4,0,6.344,3.839,10.265,9.8,10.347,5.99-.109,9.829-4.057,9.8-10.4C53.695,4.52,50.128,0,43.92,0ZM315.526,10.374c0-4.411,1.5-8.795,5.527-8.768s5.528,4.384,5.528,8.768c0,4.411-1.5,8.768-5.528,8.768-4.057,0-5.527-4.33-5.527-8.768M321.053,0c-5.881,0-9.8,4.248-9.8,10.4,0,6.344,3.839,10.265,9.8,10.347,5.99-.109,9.83-4.057,9.8-10.4C330.828,4.52,327.261,0,321.053,0Z" fill="none"/>
    </clipPath>
    <linearGradient id="linear-gradient" y1="1" x2="0.001" y2="1" gradientUnits="objectBoundingBox">
      <stop offset="0" stop-color="#ffffff"/>
      <stop offset="1" stop-color="#ffffff"/>
    </linearGradient>
  </defs>
  <g id="Grupo_1" data-name="Grupo 1" clip-path="url(#clip-path)">
    <rect id="Retângulo_3" data-name="Retângulo 3" width="330.883" height="21.375" transform="translate(0 0)" fill="url(#linear-gradient)"/>
  </g>
</svg>
