<svg id="visual" viewBox="0 0 900 600" width="900" height="600" xmlns="http://www.w3.org/2000/svg" xmlns:xlink="http://www.w3.org/1999/xlink" version="1.1"><rect x="0" y="0" width="900" height="600" fill="#ffffff"></rect><path d="M0 302L15 292.2C30 282.3 60 262.7 90 280.5C120 298.3 150 353.7 180 373C210 392.3 240 375.7 270 340.5C300 305.3 330 251.7 360 252.2C390 252.7 420 307.3 450 315.5C480 323.7 510 285.3 540 250.5C570 215.7 600 184.3 630 206.5C660 228.7 690 304.3 720 339.2C750 374 780 368 810 334.8C840 301.7 870 241.3 885 211.2L900 181L900 601L885 601C870 601 840 601 810 601C780 601 750 601 720 601C690 601 660 601 630 601C600 601 570 601 540 601C510 601 480 601 450 601C420 601 390 601 360 601C330 601 300 601 270 601C240 601 210 601 180 601C150 601 120 601 90 601C60 601 30 601 15 601L0 601Z" fill="#f1f1f1" stroke-linecap="round" stroke-linejoin="miter"></path></svg>